<svg id="visual" viewBox="0 0 1440 959" width="1440" height="959" xmlns="http://www.w3.org/2000/svg" xmlns:xlink="http://www.w3.org/1999/xlink" version="1.1"><path fill="#175a74" stroke-linecap="round" stroke-linejoin="miter" d="M0 231L48 218.7C96 206.3 192 181.7 288 189.7C384 197.7 480 238.3 576 256C672 273.7 768 268.3 864 235.8C960 203.3 1056 143.7 1152 114.3C1248 85 1344 86 1392 86.5L1440 87L1440 0L1392 0C1344 0 1248 0 1152 0C1056 0 960 0 864 0C768 0 672 0 576 0C480 0 384 0 288 0C192 0 96 0 48 0L0 0Z"></path></svg>