<svg id="visual" viewBox="0 0 1440 959" width="1440" height="959" xmlns="http://www.w3.org/2000/svg" xmlns:xlink="http://www.w3.org/1999/xlink" version="1.1"><path fill="#175a74" stroke-linecap="round" stroke-linejoin="miter" d="M0 173L48 163.7C96 154.3 192 135.7 288 141.7C384 147.7 480 178.3 576 191.7C672 205 768 201 864 176.7C960 152.3 1056 107.7 1152 85.7C1248 63.7 1344 64.3 1392 64.7L1440 65L1440 0L1392 0C1344 0 1248 0 1152 0C1056 0 960 0 864 0C768 0 672 0 576 0C480 0 384 0 288 0C192 0 96 0 48 0L0 0Z"></path></svg>