<svg id="visual" viewBox="0 0 425 527" width="425" height="527" xmlns="http://www.w3.org/2000/svg" xmlns:xlink="http://www.w3.org/1999/xlink" version="1.1"><path fill="#42b649" stroke-linecap="round" stroke-linejoin="miter" d="M0 127L14.2 120.2C28.3 113.3 56.7 99.7 85 104C113.3 108.3 141.7 130.7 170 140.3C198.3 150 226.7 147 255 129.2C283.3 111.3 311.7 78.7 340 62.5C368.3 46.3 396.7 46.7 410.8 46.8L425 47L425 0L410.8 0C396.7 0 368.3 0 340 0C311.7 0 283.3 0 255 0C226.7 0 198.3 0 170 0C141.7 0 113.3 0 85 0C56.7 0 28.3 0 14.2 0L0 0Z"></path></svg>