<svg id="visual" viewBox="0 0 768 527" width="768" height="527" xmlns="http://www.w3.org/2000/svg" xmlns:xlink="http://www.w3.org/1999/xlink" version="1.1"><path fill="#175a74" stroke-linecap="round" stroke-linejoin="miter" d="M0 158L25.7 149.5C51.3 141 102.7 124 153.8 129.5C205 135 256 163 307.2 175.2C358.3 187.3 409.7 183.7 460.8 161.3C512 139 563 98 614.2 77.8C665.3 57.7 716.7 58.3 742.3 58.7L768 59L768 0L742.3 0C716.7 0 665.3 0 614.2 0C563 0 512 0 460.8 0C409.7 0 358.3 0 307.2 0C256 0 205 0 153.8 0C102.7 0 51.3 0 25.7 0L0 0Z"></path></svg>