<svg id="visual" viewBox="0 0 900 600" width="900" height="600" xmlns="http://www.w3.org/2000/svg" xmlns:xlink="http://www.w3.org/1999/xlink" version="1.1"><rect x="0" y="0" width="900" height="600" fill="#ffffff"></rect><defs><linearGradient id="grad1_0" x1="33.3%" y1="100%" x2="100%" y2="0%"><stop offset="20%" stop-color="#ffffff" stop-opacity="1"></stop><stop offset="80%" stop-color="#ffffff" stop-opacity="1"></stop></linearGradient></defs><defs><linearGradient id="grad2_0" x1="0%" y1="100%" x2="66.7%" y2="0%"><stop offset="20%" stop-color="#ffffff" stop-opacity="1"></stop><stop offset="80%" stop-color="#ffffff" stop-opacity="1"></stop></linearGradient></defs><g transform="translate(900, 600)"><path d="M-459.7 0C-432.3 -43.1 -405 -86.3 -382.3 -124.2C-359.7 -162.2 -341.8 -194.9 -326 -236.9C-310.2 -278.9 -296.5 -330.2 -266.3 -366.5C-236 -402.8 -189.2 -424.2 -142.1 -437.2C-94.9 -450.3 -47.5 -455 0 -459.7L0 0Z" fill="#45EBa5"></path></g><g transform="translate(0, 0)"><path d="M459.7 0C427.3 37.6 394.9 75.2 388 126.1C381.2 177 399.9 241.1 371.9 270.2C344 299.3 269.4 293.4 222.2 305.8C175 318.2 155.1 348.9 122.7 377.6C90.2 406.3 45.1 433 0 459.7L0 0Z" fill="#45EBa5"></path></g></svg>