<svg id="visual" viewBox="0 0 900 600" width="900" height="600" xmlns="http://www.w3.org/2000/svg" xmlns:xlink="http://www.w3.org/1999/xlink" version="1.1"><path d="M0 116L21.5 128C43 140 86 164 128.8 179.8C171.7 195.7 214.3 203.3 257.2 195C300 186.7 343 162.3 385.8 152.2C428.7 142 471.3 146 514.2 158.5C557 171 600 192 642.8 188.8C685.7 185.7 728.3 158.3 771.2 158.2C814 158 857 185 878.5 198.5L900 212L900 0L878.5 0C857 0 814 0 771.2 0C728.3 0 685.7 0 642.8 0C600 0 557 0 514.2 0C471.3 0 428.7 0 385.8 0C343 0 300 0 257.2 0C214.3 0 171.7 0 128.8 0C86 0 43 0 21.5 0L0 0Z" fill="#175a74" stroke-linecap="round" stroke-linejoin="miter"></path></svg>