<?xml version="1.0" standalone="no"?>
<!DOCTYPE svg PUBLIC "-//W3C//DTD SVG 20010904//EN"
 "http://www.w3.org/TR/2001/REC-SVG-20010904/DTD/svg10.dtd">
<svg version="1.0" xmlns="http://www.w3.org/2000/svg"
 width="512.000000pt" height="512.000000pt" viewBox="0 0 512.000000 512.000000"
 preserveAspectRatio="xMidYMid meet">
<defs>
   <linearGradient id="lgrad" x1="7%" y1="0%" x2="93%" y2="100%" >
    
          <stop offset="0%" style="stop-color:rgb(94,252,232);stop-opacity:1.00" />
          <stop offset="53%" style="stop-color:rgb(115,110,254);stop-opacity:1.00" />

    </linearGradient>
  </defs>
<g transform="translate(0.000000,512.000000) scale(0.100000,-0.100000)"
fill="url(#lgrad)" stroke="none">
<path d="M353 4965 c-165 -36 -294 -162 -338 -332 -13 -50 -15 -268 -15 -1633
0 -1731 -3 -1634 60 -1745 35 -61 120 -144 176 -173 104 -53 87 -52 937 -52
l789 0 -7 -32 c-7 -33 -110 -493 -120 -535 l-5 -23 -315 0 -315 0 0 -150 0
-150 1360 0 1360 0 0 150 0 150 -315 0 -315 0 -5 22 c-10 43 -113 503 -120
535 l-7 33 789 0 c840 0 835 0 932 50 61 30 145 113 181 175 63 111 60 14 60
1745 0 1717 3 1626 -56 1742 -32 64 -112 143 -182 181 -110 60 8 57 -2327 56
-1763 0 -2151 -3 -2202 -14z m4393 -311 c15 -11 37 -33 48 -48 21 -27 21 -33
24 -1252 l2 -1224 -2260 0 -2260 0 0 1210 c0 1003 2 1216 14 1243 17 40 55 75
92 87 16 5 985 8 2171 7 l2142 -2 27 -21z m74 -3016 c0 -217 -7 -244 -69 -285
l-34 -23 -2157 0 -2157 0 -34 23 c-62 41 -69 68 -69 285 l0 192 2260 0 2260 0
0 -192z m-1965 -630 c26 -111 125 -554 125 -560 0 -5 -189 -8 -420 -8 -231 0
-420 3 -420 8 0 6 99 449 125 560 l5 22 290 0 290 0 5 -22z"/>
<path d="M1952 3507 l-502 -502 105 -105 105 -105 505 505 505 505 -102 102
c-57 57 -105 103 -108 103 -3 0 -231 -226 -508 -503z"/>
<path d="M2952 3507 l-502 -502 105 -105 105 -105 505 505 505 505 -102 102
c-57 57 -105 103 -108 103 -3 0 -231 -226 -508 -503z"/>
</g>
</svg>
