<svg xmlns="http://www.w3.org/2000/svg" viewBox="251.18 38.87 72.1 105.88"><g id="freepik--speach-bubble--inject-7"><g id="freepik--speach-bubble--inject-7"><path d="M290.06,144.56,284.42,134l4.54-13.1v-8l-13.89,8v8l6,10.34a.83.83,0,0,0,.41.36h0Z" style="fill:#21ABA5"/><path d="M290.06,144.56,284.42,134l4.54-13.1v-8l-13.89,8v8l6,10.34a.83.83,0,0,0,.41.36h0Z" style="opacity:0.2"/><path d="M323.23,49.08a9.21,9.21,0,0,0-4.16-7.22l-3.39-2a9.26,9.26,0,0,0-8.33,0L255.35,70a9.22,9.22,0,0,0-4.17,7.22v57.21a9.22,9.22,0,0,0,4.17,7.22l3.39,2a9.19,9.19,0,0,0,8.33,0l16.72-9.66,6,10.32a.89.89,0,0,0,1.61-.15l6.3-18.18,21.41-12.4a9.22,9.22,0,0,0,4.17-7.22Z" style="fill:#21ABA5"/><path d="M251.18,134.41a9.22,9.22,0,0,0,4.17,7.22l3.39,2a9.31,9.31,0,0,0,7.62.34c-2,.74-3.46-.37-3.46-2.74V84a8.51,8.51,0,0,1,1.22-4.1L252.4,73.09a8.58,8.58,0,0,0-1.22,4.11Z" style="opacity:0.2"/><path d="M323.1,47.89c-.49-1.77-2.1-2.33-4-1.22l-52,30.08a8.26,8.26,0,0,0-2.94,3.11L252.42,73.1A8.31,8.31,0,0,1,255.35,70l52-30.08a9.28,9.28,0,0,1,8.34,0l3.4,2A9.2,9.2,0,0,1,323.1,47.89Z" style="fill:#fff;opacity:0.5"/><path d="M315.82,65.3c-3.42,8,.8,20.32-2.21,30.15s-8.46,14.15-14.35,13.39c-.69-11,2.76-22.26,8.46-31.51C302.29,82.84,295,92,296.56,108.51c-4.48-1.94-8.58-10.67-3.8-21.4C299.32,72.36,315.82,65.3,315.82,65.3Z" style="fill:#fff"/><polygon points="279.85 77.73 269.45 105.31 278.38 106.84 275.6 129.04 286.43 100.49 277.52 98.55 279.85 77.73" style="fill:#fff"/></g></g></svg>