<?xml version="1.0" standalone="no"?>
<!DOCTYPE svg PUBLIC "-//W3C//DTD SVG 20010904//EN"
 "http://www.w3.org/TR/2001/REC-SVG-20010904/DTD/svg10.dtd">
<svg version="1.0" xmlns="http://www.w3.org/2000/svg"
 width="512.000000pt" height="512.000000pt" viewBox="0 0 512.000000 512.000000"
 preserveAspectRatio="xMidYMid meet">
<defs>
    <linearGradient id="lgrad" x1="7%" y1="0%" x2="93%" y2="100%" >
        <stop offset="0%" style="stop-color:rgb(129,251,184);stop-opacity:1.00" />
        <stop offset="63%" style="stop-color:rgb(40,199,111);stop-opacity:1.00" />
    </linearGradient>
</defs>
<g transform="translate(0.000000,512.000000) scale(0.100000,-0.100000)"
fill="url(#lgrad)" stroke="none">
<path d="M2320 5110 c-762 -79 -1444 -480 -1868 -1098 l-50 -73 -4 194 c-3
191 -3 194 -30 234 -41 63 -90 88 -169 88 -54 0 -72 -5 -106 -27 -22 -15 -51
-44 -64 -65 -24 -37 -24 -43 -27 -328 -2 -191 1 -311 8 -350 38 -194 201 -357
395 -395 39 -7 159 -10 350 -8 285 3 291 3 328 27 21 13 50 42 65 64 23 34 27
52 27 107 0 55 -4 73 -27 107 -15 22 -44 51 -65 64 -35 22 -50 24 -201 27 -89
2 -162 7 -162 11 0 11 96 148 155 221 89 110 184 207 284 292 591 495 1366
645 2089 403 639 -214 1144 -720 1358 -1361 69 -206 98 -363 113 -620 9 -151
23 -185 94 -232 34 -23 52 -27 107 -27 55 0 73 4 107 27 89 58 105 134 84 379
-55 617 -309 1165 -742 1598 -398 397 -880 639 -1449 726 -124 19 -477 28
-600 15z"/>
<path d="M2422 3638 c-66 -109 -607 -1058 -618 -1085 -40 -95 15 -214 118
-257 30 -13 81 -16 253 -16 118 0 215 -2 215 -5 0 -3 -90 -212 -200 -465 -110
-253 -200 -465 -200 -473 0 -21 34 -47 61 -47 13 0 36 8 51 18 34 22 1107
1277 1119 1309 22 59 -5 143 -58 179 -25 17 -54 20 -284 24 l-256 5 219 350
c120 193 238 383 263 423 l45 72 -354 0 -354 0 -20 -32z"/>
<path d="M132 2749 c-45 -13 -108 -80 -121 -126 -30 -108 5 -445 74 -718 112
-439 368 -876 697 -1191 202 -193 392 -326 643 -450 332 -164 657 -246 1030
-260 618 -24 1218 175 1700 563 187 150 391 372 513 556 l47 70 5 -195 c5
-190 6 -195 32 -235 41 -62 90 -88 168 -88 78 0 127 26 168 88 l27 40 3 286
c2 188 -1 307 -8 346 -38 194 -201 357 -395 395 -40 7 -160 10 -355 8 -290 -3
-296 -3 -333 -27 -21 -13 -50 -42 -65 -64 -23 -34 -27 -52 -27 -107 0 -55 4
-73 27 -107 15 -22 44 -51 65 -64 35 -22 50 -24 201 -27 89 -2 162 -7 162 -12
0 -15 -134 -196 -212 -287 -443 -516 -1154 -800 -1829 -733 -816 82 -1504 606
-1803 1372 -83 211 -128 430 -144 699 -10 166 -23 199 -92 245 -43 29 -125 39
-178 23z"/>
</g>
</svg>
