<svg id="visual" viewBox="0 0 900 600" width="900" height="600" xmlns="http://www.w3.org/2000/svg" xmlns:xlink="http://www.w3.org/1999/xlink" version="1.1"><path d="M0 195L21.5 181C43 167 86 139 128.8 140.5C171.7 142 214.3 173 257.2 188C300 203 343 202 385.8 191.7C428.7 181.3 471.3 161.7 514.2 163.8C557 166 600 190 642.8 192.5C685.7 195 728.3 176 771.2 166C814 156 857 155 878.5 154.5L900 154L900 0L878.5 0C857 0 814 0 771.2 0C728.3 0 685.7 0 642.8 0C600 0 557 0 514.2 0C471.3 0 428.7 0 385.8 0C343 0 300 0 257.2 0C214.3 0 171.7 0 128.8 0C86 0 43 0 21.5 0L0 0Z" fill="#42b649" stroke-linecap="round" stroke-linejoin="miter"></path></svg>