<?xml version="1.0" standalone="no"?>
<!DOCTYPE svg PUBLIC "-//W3C//DTD SVG 20010904//EN"
 "http://www.w3.org/TR/2001/REC-SVG-20010904/DTD/svg10.dtd">
<svg version="1.0" xmlns="http://www.w3.org/2000/svg"
 width="364.000000pt" height="258.000000pt" viewBox="0 0 364.000000 258.000000"
 preserveAspectRatio="xMidYMid meet">

<g transform="translate(0.000000,258.000000) scale(0.100000,-0.100000)"
fill="none" >
<path d="M1770 2459 c-582 -56 -1068 -426 -1289 -981 -63 -159 -108 -450 -96
-618 11 -143 45 -319 84 -430 25 -73 117 -266 130 -274 6 -4 22 17 37 46 63
126 199 251 360 333 244 123 583 164 924 110 194 -30 389 -15 584 45 159 49
241 98 388 234 159 147 321 222 464 214 l76 -3 -6 45 c-9 65 -50 228 -74 293
-52 138 -162 329 -250 432 -280 330 -631 514 -1058 555 -121 11 -150 11 -274
-1z m521 -1002 c40 -27 66 -89 55 -132 -4 -15 -22 -43 -41 -62 -29 -29 -39
-33 -85 -33 -46 0 -56 4 -85 33 -44 44 -53 93 -29 144 34 69 121 93 185 50z
m-285 -228 c165 -87 152 -83 257 -87 116 -5 202 13 315 64 41 19 77 32 79 30
12 -12 -117 -104 -212 -152 -93 -46 -124 -57 -198 -66 -185 -24 -366 26 -398
110 -14 37 7 99 39 116 39 22 52 20 118 -15z" stroke="black" stoke-width="5" fill="none" stoke-dasharray="5,5" />
</g>
</svg>
